<?xml version="1.0" standalone="no"?>
<!DOCTYPE svg PUBLIC "-//W3C//DTD SVG 20010904//EN"
 "http://www.w3.org/TR/2001/REC-SVG-20010904/DTD/svg10.dtd">
<svg version="1.0" xmlns="http://www.w3.org/2000/svg"
 width="1280.000000pt" height="1146.000000pt" viewBox="0 0 1280.000000 1146.000000"
 preserveAspectRatio="xMidYMid meet">
<metadata>
Created by potrace 1.15, written by Peter Selinger 2001-2017
</metadata>
<g transform="translate(0.000000,1146.000000) scale(0.100000,-0.100000)"
fill="#000000" stroke="none">
<path d="M10455 11441 c-46 -21 -80 -55 -194 -196 -79 -97 -87 -116 -75 -162
5 -19 13 -23 44 -23 35 0 38 -2 44 -35 6 -33 9 -35 45 -35 37 0 40 -2 48 -37
8 -34 12 -37 43 -37 31 -1 36 -5 46 -36 10 -30 16 -36 50 -40 34 -4 40 -9 44
-35 4 -26 10 -30 43 -33 21 -2 40 -9 42 -15 2 -7 6 -24 9 -39 6 -25 11 -28 46
-28 33 0 40 -3 40 -19 0 -39 11 -51 49 -51 35 0 38 -3 47 -37 8 -35 12 -38 44
-38 32 -1 36 -4 44 -38 9 -34 12 -37 47 -37 38 0 49 -12 49 -51 0 -16 7 -19
40 -19 35 0 40 -3 46 -27 11 -51 13 -53 54 -53 35 0 40 -3 40 -22 0 -35 12
-46 50 -50 31 -3 35 -7 43 -40 8 -36 11 -38 47 -38 35 0 38 -2 44 -35 7 -33 9
-35 46 -35 37 0 39 -2 46 -35 6 -33 9 -35 43 -35 51 0 91 -41 91 -93 0 -30
-11 -50 -63 -114 -35 -43 -197 -244 -361 -448 -165 -203 -305 -377 -313 -385
-12 -13 -23 -5 -86 65 -39 44 -89 97 -109 119 l-38 38 75 143 c70 133 74 144
64 174 -6 18 -16 30 -23 28 -51 -19 -54 -18 -61 14 -7 29 -9 30 -40 25 -30 -6
-34 -4 -43 24 -10 27 -13 29 -37 20 -34 -13 -31 -14 -45 20 -11 27 -16 30 -45
24 -31 -5 -33 -4 -40 25 -7 32 -10 33 -62 14 -6 -2 -14 9 -18 26 -7 34 -11 36
-49 21 -23 -8 -26 -6 -36 25 -10 31 -13 33 -36 25 -34 -13 -34 -14 -45 20 -12
33 -20 36 -50 19 -18 -9 -22 -6 -32 21 -11 28 -15 31 -43 25 -29 -5 -33 -2
-42 25 -12 34 -12 33 -45 21 -22 -9 -27 -6 -38 20 -11 28 -15 30 -45 25 -30
-6 -33 -4 -39 24 -7 31 -10 32 -62 13 -6 -3 -14 9 -18 27 -7 30 -9 31 -41 25
-32 -6 -36 -4 -45 24 -12 35 -10 34 -44 21 -24 -9 -27 -7 -37 20 -9 28 -13 30
-43 24 -29 -5 -33 -3 -43 25 -10 29 -12 30 -41 20 -27 -9 -44 -37 -136 -215
-72 -139 -111 -204 -121 -202 -9 2 -566 -679 -1450 -1772 -789 -976 -1439
-1776 -1443 -1778 -5 -2 -651 775 -1436 1727 -810 980 -1434 1727 -1440 1724
-8 -2 -56 76 -125 201 -63 113 -119 206 -126 206 -7 0 -19 3 -27 6 -10 3 -18
-5 -25 -25 -10 -29 -13 -30 -38 -21 -30 12 -44 1 -44 -33 0 -18 -8 -18 -57 0
-6 2 -14 -9 -18 -27 -6 -28 -9 -30 -40 -24 -29 5 -33 3 -39 -21 -6 -23 -10
-25 -40 -19 -32 5 -34 4 -41 -25 -6 -27 -9 -29 -31 -20 -34 12 -34 13 -46 -22
-7 -20 -15 -28 -24 -25 -8 3 -20 9 -28 12 -9 3 -17 -5 -24 -25 -12 -35 -11
-35 -47 -21 -24 9 -26 7 -32 -21 -5 -29 -8 -30 -39 -24 -30 5 -34 3 -40 -20
-6 -24 -10 -26 -39 -21 -31 6 -34 4 -40 -23 -6 -27 -9 -29 -31 -20 -36 13 -44
11 -44 -8 0 -34 -14 -45 -44 -33 -25 9 -28 8 -38 -20 -11 -34 -9 -33 -42 -21
-22 9 -26 7 -35 -20 -9 -25 -15 -29 -42 -27 -27 3 -34 -1 -39 -22 -4 -15 -13
-23 -21 -21 -8 2 -21 6 -30 8 -11 3 -20 -5 -27 -26 -10 -28 -13 -30 -37 -21
-35 13 -33 14 -40 -24 -6 -29 3 -52 69 -171 l76 -138 -22 -21 c-13 -11 -59
-63 -102 -114 -44 -51 -83 -89 -87 -85 -28 31 -732 888 -745 908 -19 30 -13
84 14 108 9 8 35 17 57 19 37 3 40 5 43 36 3 30 6 32 42 32 35 0 38 2 44 34 6
32 10 35 44 38 32 3 38 7 42 33 4 26 10 30 42 33 33 3 37 7 45 40 8 33 12 36
43 36 31 1 35 4 43 38 8 35 10 36 42 31 31 -5 35 -3 40 23 12 51 14 54 49 54
31 0 34 3 40 35 7 33 9 35 46 35 36 0 39 2 42 33 3 29 6 32 40 35 34 3 38 6
44 38 6 32 9 34 44 34 36 0 39 2 42 33 3 29 7 32 38 35 38 4 50 15 50 50 0 19
5 22 40 22 35 0 40 3 40 23 0 34 12 45 50 49 31 3 35 6 38 36 3 30 6 32 42 32
35 0 38 2 44 34 6 31 10 35 43 38 33 3 38 7 44 37 7 32 1 41 -106 170 -163
196 -185 206 -382 166 -206 -42 -495 -119 -671 -180 -699 -240 -1104 -571
-1256 -1025 -64 -191 -80 -346 -50 -469 21 -83 47 -136 118 -234 41 -58 950
-1168 1064 -1299 13 -15 8 -24 -47 -90 -74 -91 -103 -153 -109 -238 -4 -57 1
-81 36 -186 155 -464 510 -847 1007 -1085 247 -118 348 -144 451 -114 l59 17
38 -43 c21 -23 34 -45 30 -49 -4 -4 -47 -39 -95 -79 -49 -40 -88 -76 -88 -80
0 -6 394 -489 418 -513 4 -3 50 29 102 73 52 44 97 78 101 77 4 -2 161 -190
349 -418 187 -228 367 -440 398 -470 200 -192 523 -202 723 -22 179 161 224
422 112 647 -25 49 -83 125 -272 353 -50 60 -91 112 -91 115 0 13 185 47 257
48 95 0 130 -10 191 -54 120 -89 671 -687 654 -711 -5 -6 -634 -785 -1398
-1731 -765 -946 -1416 -1753 -1448 -1793 -231 -292 -429 -690 -492 -992 -21
-104 -24 -293 -5 -370 16 -65 50 -135 86 -178 32 -38 189 -164 230 -184 103
-52 272 -50 437 5 263 88 526 264 788 527 144 144 72 56 1604 1952 l1169 1446
76 -92 c42 -50 641 -775 1331 -1611 1106 -1341 1273 -1540 1424 -1690 223
-223 404 -359 615 -465 238 -119 439 -149 575 -87 28 13 92 57 141 99 143 119
183 217 172 426 -14 278 -164 641 -414 1000 -84 121 -93 132 -1681 2055
l-1353 1638 94 112 c285 340 609 678 682 713 63 29 185 31 304 4 55 -13 105
-26 111 -30 8 -5 -45 -76 -150 -206 -214 -263 -250 -336 -250 -504 0 -155 55
-292 160 -397 109 -110 227 -163 380 -170 149 -8 279 35 383 127 27 24 208
240 403 481 l354 439 106 -87 c59 -48 109 -82 112 -76 4 6 97 121 207 257 110
136 200 251 200 257 0 6 -42 45 -94 87 -52 42 -96 82 -97 87 -2 6 12 27 30 48
l33 39 47 -16 c66 -23 163 -20 238 5 611 210 1050 623 1229 1154 29 86 34 114
34 195 0 83 -3 102 -27 150 -15 30 -57 88 -92 129 l-66 74 63 76 c156 187 948
1172 990 1230 63 85 115 193 128 266 29 153 -25 399 -132 604 -277 532 -911
895 -1978 1135 -134 31 -172 32 -226 7z m-1500 -2462 c49 -12 118 -66 141
-111 20 -39 20 -118 -1 -158 -11 -22 -2172 -2706 -2302 -2860 -2 -2 -20 14
-39 38 l-35 42 -40 -32 c-23 -19 -43 -28 -47 -22 -5 5 -44 51 -86 102 -71 84
-77 95 -63 110 8 9 519 643 1137 1407 617 765 1139 1407 1159 1428 21 21 55
44 77 52 48 17 46 17 99 4z m-5086 -103 c14 -8 40 -29 57 -48 54 -58 2254
-2727 2260 -2741 4 -10 -65 -108 -102 -146 -2 -2 -19 10 -39 28 -20 17 -40 31
-45 31 -5 0 -30 -27 -56 -60 -26 -33 -50 -60 -53 -60 -12 0 -2246 2710 -2268
2752 -13 23 -23 57 -23 77 1 76 62 158 137 181 34 11 96 4 132 -14z m5424
-1685 c37 -30 67 -57 67 -59 0 -2 -14 -21 -31 -42 l-31 -39 -60 50 c-33 28
-64 49 -68 47 -6 -2 -251 -303 -413 -506 -7 -9 -2 -18 19 -35 16 -12 44 -35
62 -52 l33 -30 -31 -37 -31 -38 -113 92 -113 92 170 210 c94 116 218 270 276
343 l106 132 45 -37 c25 -20 75 -61 113 -91z m-5369 -269 c146 -178 266 -326
266 -330 0 -4 -46 -45 -102 -91 l-101 -84 -34 37 -34 37 61 51 61 51 -29 31
c-16 17 -113 133 -216 259 l-188 227 -40 -32 c-82 -67 -77 -66 -109 -27 -16
18 -29 37 -29 41 0 3 46 45 103 92 78 65 105 82 113 73 7 -7 131 -157 278
-335z m2496 -1112 l62 -74 -34 -28 c-18 -15 -36 -26 -40 -25 -4 1 -41 28 -82
61 l-75 58 42 53 c32 40 45 50 54 41 6 -6 39 -45 73 -86z"/>
</g>
</svg>
